<svg width="162" height="32" viewBox="0 0 162 32" fill="none" xmlns="http://www.w3.org/2000/svg">
<path d="M5.8 31.5C4.76667 31.5 3.78333 31.2167 2.85 30.65C1.91667 30.05 1.21667 29.15 0.75 27.95C0.583333 27.5167 0.466667 27.0667 0.4 26.6C0.333333 26.1 0.3 25.6167 0.3 25.15C0.3 24.6833 0.383333 24.45 0.55 24.45C0.75 24.45 0.85 24.5833 0.85 24.85C0.85 26.4167 1.23333 27.6 2 28.4C2.8 29.2 3.78333 29.6 4.95 29.6C6.11667 29.6 7.23333 29.2667 8.3 28.6C9.4 27.9333 10.4167 27.0833 11.35 26.05C12.8833 24.3833 14.1833 22.7 15.25 21C16.3167 19.2667 17.2833 17.5 18.15 15.7C19.05 13.8667 19.95 11.9667 20.85 10C21.4167 8.8 22.1167 7.75 22.95 6.85C23.8167 5.95 24.85 5.33333 26.05 5L26.1 4.95H23.35C22.1833 4.95 20.95 5 19.65 5.1C18.35 5.2 17.1667 5.41667 16.1 5.75C15.0667 6.08333 14.3167 6.58333 13.85 7.25C13.55 7.68333 13.4 8.18333 13.4 8.75C13.4 9.31667 13.55 9.86667 13.85 10.4C14.15 10.9333 14.5333 11.3167 15 11.55C15.0667 11.6167 15.1 11.6667 15.1 11.7C15.1 11.7667 15.0167 11.85 14.85 11.95C14.7167 12.0167 14.5667 12.0333 14.4 12C14.1333 11.8333 13.8 11.5667 13.4 11.2C13 10.8 12.6333 10.3833 12.3 9.95C12 9.51667 11.8 9.15 11.7 8.85C11.5667 8.45 11.5 8.05 11.5 7.65C11.5 6.85 11.7833 6.2 12.35 5.7C12.95 5.2 13.7167 4.81667 14.65 4.55C15.5833 4.28333 16.5833 4.1 17.65 4C18.75 3.86667 19.8 3.8 20.8 3.8C21.8333 3.76667 22.7167 3.75 23.45 3.75H28.85C28.9167 3.75 28.95 3.76667 28.95 3.8C28.95 3.9 28.8333 4.05 28.6 4.25C28.4 4.41667 28.2667 4.5 28.2 4.5C27.3667 4.66666 26.75 5.11667 26.35 5.85C25.95 6.55 25.7667 7.68333 25.8 9.25C25.8 9.25 25.8 9.61667 25.8 10.35C25.8333 11.0833 25.8667 12.0333 25.9 13.2C25.9333 14.3667 25.9667 15.6167 26 16.95C26.0333 18.2833 26.0667 19.5667 26.1 20.8C26.1333 22.0333 26.1667 23.0667 26.2 23.9V24.2L43.55 5.9C44.65 4.73333 45.7333 3.75 46.8 2.95C47.9 2.11667 49.0333 1.75 50.2 1.85C50.2333 1.85 50.25 1.86667 50.25 1.9C50.2833 1.9 50.3 1.9 50.3 1.9C50.3 2 50.2333 2.11666 50.1 2.25C49.9667 2.38333 49.8167 2.46666 49.65 2.5C48.7833 2.46666 48 2.8 47.3 3.5C46.6 4.2 45.95 5.03333 45.35 6C45.05 6.5 44.6 7.3 44 8.4C43.4 9.46667 42.7167 10.7333 41.95 12.2C41.2167 13.6667 40.4667 15.2167 39.7 16.85C38.9333 18.4833 38.2167 20.0833 37.55 21.65C36.9167 23.2167 36.4 24.65 36 25.95C35.6 27.2167 35.4 28.25 35.4 29.05C35.4 29.9833 35.7167 30.45 36.35 30.45C36.6167 30.45 36.9 30.3833 37.2 30.25C37.6333 30.0833 38.1167 29.8333 38.65 29.5C39.1833 29.1667 39.6667 28.7833 40.1 28.35C40.9667 27.5167 41.7333 26.6667 42.4 25.8C43.0667 24.9 43.4667 24.3833 43.6 24.25C43.7 24.1167 43.7833 24.05 43.85 24.05C43.9833 24.05 44.05 24.15 44.05 24.35C44.05 24.55 43.9833 24.7333 43.85 24.9C43.5833 25.2333 43.1333 25.8167 42.5 26.65C41.8667 27.45 41.1167 28.2667 40.25 29.1C39.4167 29.9333 38.5167 30.5667 37.55 31C37.25 31.1333 36.9333 31.2333 36.6 31.3C36.2667 31.4 35.9333 31.45 35.6 31.45C34.8667 31.45 34.2 31.2333 33.6 30.8C33.0333 30.3333 32.75 29.5667 32.75 28.5C32.75 27.4667 32.9833 26.3 33.45 25C33.95 23.6667 34.5 22.3833 35.1 21.15C35.7333 19.8833 36.25 18.8167 36.65 17.95C37.0833 17.05 37.6333 15.9 38.3 14.5C38.9667 13.1 39.7333 11.6833 40.6 10.25L26.2 25.45C26.1667 25.7167 26.05 25.9833 25.85 26.25C25.65 26.4833 25.3333 26.6833 24.9 26.85C24.6667 26.95 24.35 27.2167 23.95 27.65C23.55 28.0833 23.2833 28.3833 23.15 28.55C23.15 28.5833 23.1 28.6 23 28.6C22.9 28.6 22.8 28.5667 22.7 28.5C22.6 28.4333 22.5667 28.3833 22.6 28.35C23.4667 27.25 23.9167 25.7333 23.95 23.8L24 22.6C24.0667 21.2 24.1167 19.7333 24.15 18.2C24.1833 16.6333 24.2 15.1833 24.2 13.85C24.2333 12.4833 24.25 11.3833 24.25 10.55C24.25 9.68333 24.25 9.25 24.25 9.25C24.25 8.45 24.3667 7.75 24.6 7.15C24.8333 6.55 25.1167 6.03333 25.45 5.6C24.8833 6.03333 24.3333 6.55 23.8 7.15C23.2667 7.75 22.8167 8.41667 22.45 9.15C21.95 10.1833 21.3833 11.5167 20.75 13.15C20.1167 14.7833 19.3833 16.5167 18.55 18.35C17.75 20.1833 16.85 21.9833 15.85 23.75C14.8833 25.4833 13.8 26.9833 12.6 28.25C11.7667 29.15 10.7 29.9167 9.4 30.55C8.13333 31.1833 6.93333 31.5 5.8 31.5ZM44.0039 31.1C43.4706 31.1 42.9872 31 42.5539 30.8C42.1539 30.5667 41.9539 30.0833 41.9539 29.35C41.9539 28.1833 42.2539 27.0167 42.8539 25.85C43.4539 24.65 44.0706 23.6 44.7039 22.7C45.2706 21.9333 45.9039 21.2167 46.6039 20.55C47.3372 19.85 48.1206 19.25 48.9539 18.75C49.4872 18.4167 50.2039 18.0667 51.1039 17.7C52.0372 17.3 52.8206 17.1 53.4539 17.1C53.9872 17.1 54.4539 17.25 54.8539 17.55C55.2539 17.8167 55.4539 18.3167 55.4539 19.05C55.4539 20.1833 55.1539 21.35 54.5539 22.55C53.9872 23.7167 53.3872 24.75 52.7539 25.65C52.4539 26.05 52.1539 26.4333 51.8539 26.8C51.5539 27.1333 51.2206 27.4833 50.8539 27.85C52.0872 27.85 53.2206 27.5 54.2539 26.8C55.2872 26.0667 56.1872 25.1833 56.9539 24.15L57.0539 24.05C57.1539 24.05 57.2039 24.15 57.2039 24.35C57.2039 24.5833 57.1372 24.8 57.0039 25C56.3372 25.9333 55.5039 26.7667 54.5039 27.5C53.5039 28.2 52.3706 28.55 51.1039 28.55C50.9706 28.55 50.8372 28.55 50.7039 28.55C50.5706 28.55 50.4372 28.5333 50.3039 28.5C48.4372 30.2333 46.3372 31.1 44.0039 31.1ZM45.3039 30.25C45.7706 30.25 46.2706 30.0833 46.8039 29.75C47.3706 29.4167 47.8039 29.1 48.1039 28.8C48.6706 28.2333 49.1872 27.6333 49.6539 27C50.1206 26.3333 50.5539 25.6667 50.9539 25C51.4206 24.2 51.8872 23.25 52.3539 22.15C52.8206 21.05 53.0539 20.0167 53.0539 19.05C53.0539 18.2833 52.7872 17.9 52.2539 17.9C51.8206 17.9 51.2872 18.0833 50.6539 18.45C50.0539 18.8167 49.6039 19.15 49.3039 19.45C48.1706 20.6167 47.2206 21.8833 46.4539 23.25C46.0206 24.0167 45.5539 24.9167 45.0539 25.95C44.5539 26.9833 44.3039 27.9333 44.3039 28.8C44.3039 28.9333 44.3039 29.0667 44.3039 29.2C44.3372 29.3 44.3706 29.4167 44.4039 29.55C44.5372 30.0167 44.8372 30.25 45.3039 30.25ZM63.2363 31.15C62.903 31.15 62.6197 31.0833 62.3863 30.95C62.153 30.8167 62.0363 30.5667 62.0363 30.2C62.0363 29.7333 62.153 29.2 62.3863 28.6C62.6197 28 62.8863 27.4167 63.1863 26.85C63.4863 26.25 63.753 25.7667 63.9863 25.4C62.8197 26.6333 61.603 27.8 60.3363 28.9C59.703 29.4333 59.003 29.9333 58.2363 30.4C57.4697 30.8667 56.653 31.1 55.7863 31.1C55.453 31.1 55.2197 31 55.0863 30.8C54.953 30.5667 54.8863 30.3 54.8863 30C54.8863 29.8333 54.903 29.7167 54.9363 29.65C55.103 28.35 55.5197 27 56.1863 25.6C56.853 24.2 57.6697 22.8833 58.6363 21.65C59.603 20.4167 60.5863 19.4167 61.5863 18.65C62.353 18.0833 63.0863 17.7333 63.7863 17.6C64.4863 17.4333 65.253 17.35 66.0863 17.35H67.7363C68.2697 16.45 68.8197 15.45 69.3863 14.35C69.9863 13.2167 70.5697 12.1 71.1363 11C71.7363 9.9 72.2863 8.93333 72.7863 8.1C74.153 5.76667 75.653 3.9 77.2863 2.5C78.953 1.1 80.803 0.399998 82.8363 0.399998C83.2697 0.399998 83.6697 0.533331 84.0363 0.799998C84.403 1.03333 84.5697 1.4 84.5363 1.9L84.4363 3.7C84.4363 3.73333 84.403 3.78333 84.3363 3.85C84.2697 3.88333 84.2197 3.9 84.1863 3.9C84.153 3.9 84.103 3.86666 84.0363 3.8C83.9363 3.2 83.6363 2.75 83.1363 2.45C82.6363 2.11667 82.0197 1.95 81.2863 1.95C81.053 1.95 80.7863 1.96666 80.4863 2C80.2197 2.03333 79.953 2.1 79.6863 2.2C78.753 2.53333 77.8697 3.21666 77.0363 4.25C76.203 5.25 75.303 6.58333 74.3363 8.25C74.003 8.88333 73.5697 9.71667 73.0363 10.75C72.503 11.75 71.9363 12.8333 71.3363 14C70.7697 15.1667 70.2197 16.3 69.6863 17.4C69.1863 18.5 68.753 19.4333 68.3863 20.2C68.2197 20.6 67.9363 21.2167 67.5363 22.05C67.1363 22.85 66.703 23.7333 66.2363 24.7C65.803 25.6333 65.4197 26.5 65.0863 27.3C64.7863 28.1 64.6363 28.6667 64.6363 29C64.6363 29.4667 64.8363 29.7 65.2363 29.7C65.6363 29.7 66.1697 29.4667 66.8363 29C67.503 28.5 68.1863 27.9 68.8863 27.2C69.6197 26.4667 70.2697 25.7667 70.8363 25.1C71.4363 24.4333 71.853 23.9333 72.0863 23.6C72.1863 23.7 72.2363 23.8167 72.2363 23.95C72.2363 24.1833 72.1363 24.4167 71.9363 24.65C71.7697 24.8833 71.6197 25.0833 71.4863 25.25C70.8863 26.05 70.1363 26.9167 69.2363 27.85C68.3697 28.75 67.4197 29.5333 66.3863 30.2C65.353 30.8333 64.303 31.15 63.2363 31.15ZM57.8363 29.4C58.2363 29.4 58.7863 29.1167 59.4863 28.55C60.2197 27.95 61.003 27.2167 61.8363 26.35C62.6697 25.45 63.453 24.5167 64.1863 23.55C64.9197 22.55 65.5197 21.65 65.9863 20.85C66.4863 20.0167 66.7363 19.3833 66.7363 18.95C66.7363 18.5833 66.6197 18.3333 66.3863 18.2C66.1863 18.0667 65.9197 18 65.5863 18C65.053 18 64.4697 18.2 63.8363 18.6C63.2363 18.9667 62.753 19.3333 62.3863 19.7C61.9863 20.0667 61.503 20.65 60.9363 21.45C60.403 22.2167 59.8697 23.0667 59.3363 24C58.803 24.9333 58.353 25.8333 57.9863 26.7C57.6197 27.5667 57.4363 28.2667 57.4363 28.8C57.4363 29.2 57.5697 29.4 57.8363 29.4ZM77.9336 31.15C77.6003 31.15 77.3169 31.0833 77.0836 30.95C76.8503 30.8167 76.7336 30.5667 76.7336 30.2C76.7336 29.7333 76.8503 29.2 77.0836 28.6C77.3169 28 77.5836 27.4167 77.8836 26.85C78.1836 26.25 78.4503 25.7667 78.6836 25.4C77.5169 26.6333 76.3003 27.8 75.0336 28.9C74.4003 29.4333 73.7003 29.9333 72.9336 30.4C72.1669 30.8667 71.3503 31.1 70.4836 31.1C70.1503 31.1 69.9169 31 69.7836 30.8C69.6503 30.5667 69.5836 30.3 69.5836 30C69.5836 29.8333 69.6003 29.7167 69.6336 29.65C69.8003 28.35 70.2169 27 70.8836 25.6C71.5503 24.2 72.3669 22.8833 73.3336 21.65C74.3003 20.4167 75.2836 19.4167 76.2836 18.65C77.4169 17.7833 78.6669 17.35 80.0336 17.35H85.7836C85.9503 17.35 86.0336 17.4167 86.0336 17.55C86.0336 17.8167 85.8836 17.95 85.5836 17.95C85.2503 17.95 84.9169 18.1667 84.5836 18.6C84.2503 19 84.0003 19.3333 83.8336 19.6C83.6003 19.9667 83.2336 20.5833 82.7336 21.45C82.2336 22.3167 81.7169 23.2667 81.1836 24.3C80.6836 25.3 80.2503 26.2333 79.8836 27.1C79.5169 27.9667 79.3336 28.6 79.3336 29C79.3336 29.4667 79.5669 29.7 80.0336 29.7C80.5336 29.7 81.1003 29.4667 81.7336 29C82.3669 28.5333 83.0003 27.9667 83.6336 27.3C84.3003 26.6 84.9003 25.9167 85.4336 25.25C86.0003 24.55 86.4503 24 86.7836 23.6C86.9836 23.8 86.9669 24.0833 86.7336 24.45C86.5336 24.7833 86.3503 25.05 86.1836 25.25C85.5169 26.1167 84.7503 27.0167 83.8836 27.95C83.0169 28.85 82.0669 29.6167 81.0336 30.25C80.0336 30.85 79.0003 31.15 77.9336 31.15ZM72.5336 29.4C72.9336 29.4 73.4836 29.1167 74.1836 28.55C74.9169 27.95 75.7003 27.2167 76.5336 26.35C77.3669 25.45 78.1503 24.5167 78.8836 23.55C79.6169 22.55 80.2169 21.65 80.6836 20.85C81.1836 20.0167 81.4336 19.3833 81.4336 18.95C81.4336 18.5833 81.3169 18.3333 81.0836 18.2C80.8836 18.0667 80.6169 18 80.2836 18C79.7503 18 79.1669 18.2 78.5336 18.6C77.9336 18.9667 77.4503 19.3333 77.0836 19.7C76.6836 20.0667 76.2003 20.65 75.6336 21.45C75.1003 22.2167 74.5669 23.0667 74.0336 24C73.5003 24.9333 73.0503 25.8333 72.6836 26.7C72.3169 27.5667 72.1336 28.2667 72.1336 28.8C72.1336 29.2 72.2669 29.4 72.5336 29.4ZM98.3781 31.5C97.3448 31.5 96.3615 31.2167 95.4281 30.65C94.4948 30.05 93.7948 29.15 93.3281 27.95C93.1615 27.5167 93.0448 27.0667 92.9781 26.6C92.9115 26.1 92.8781 25.6167 92.8781 25.15C92.8781 24.6833 92.9615 24.45 93.1281 24.45C93.3281 24.45 93.4281 24.5833 93.4281 24.85C93.4281 26.4167 93.8115 27.6 94.5781 28.4C95.3781 29.2 96.3615 29.6 97.5281 29.6C98.6948 29.6 99.8115 29.2667 100.878 28.6C101.978 27.9333 102.995 27.0833 103.928 26.05C105.461 24.3833 106.761 22.7 107.828 21C108.895 19.2667 109.861 17.5 110.728 15.7C111.628 13.8667 112.528 11.9667 113.428 10C113.995 8.8 114.695 7.75 115.528 6.85C116.395 5.95 117.428 5.33333 118.628 5L118.678 4.95H115.928C114.761 4.95 113.528 5 112.228 5.1C110.928 5.2 109.745 5.41667 108.678 5.75C107.645 6.08333 106.895 6.58333 106.428 7.25C106.128 7.68333 105.978 8.18333 105.978 8.75C105.978 9.31667 106.128 9.86667 106.428 10.4C106.728 10.9333 107.111 11.3167 107.578 11.55C107.645 11.6167 107.678 11.6667 107.678 11.7C107.678 11.7667 107.595 11.85 107.428 11.95C107.295 12.0167 107.145 12.0333 106.978 12C106.711 11.8333 106.378 11.5667 105.978 11.2C105.578 10.8 105.211 10.3833 104.878 9.95C104.578 9.51667 104.378 9.15 104.278 8.85C104.145 8.45 104.078 8.05 104.078 7.65C104.078 6.85 104.361 6.2 104.928 5.7C105.528 5.2 106.295 4.81667 107.228 4.55C108.161 4.28333 109.161 4.1 110.228 4C111.328 3.86667 112.378 3.8 113.378 3.8C114.411 3.76667 115.295 3.75 116.028 3.75H121.428C121.495 3.75 121.528 3.76667 121.528 3.8C121.528 3.9 121.411 4.05 121.178 4.25C120.978 4.41667 120.845 4.5 120.778 4.5C119.945 4.66666 119.328 5.11667 118.928 5.85C118.528 6.55 118.345 7.68333 118.378 9.25C118.378 9.25 118.378 9.61667 118.378 10.35C118.411 11.0833 118.445 12.0333 118.478 13.2C118.511 14.3667 118.545 15.6167 118.578 16.95C118.611 18.2833 118.645 19.5667 118.678 20.8C118.711 22.0333 118.745 23.0667 118.778 23.9V24.2L136.128 5.9C137.228 4.73333 138.311 3.75 139.378 2.95C140.478 2.11667 141.611 1.75 142.778 1.85C142.811 1.85 142.828 1.86667 142.828 1.9C142.861 1.9 142.878 1.9 142.878 1.9C142.878 2 142.811 2.11666 142.678 2.25C142.545 2.38333 142.395 2.46666 142.228 2.5C141.361 2.46666 140.578 2.8 139.878 3.5C139.178 4.2 138.528 5.03333 137.928 6C137.628 6.5 137.178 7.3 136.578 8.4C135.978 9.46667 135.295 10.7333 134.528 12.2C133.795 13.6667 133.045 15.2167 132.278 16.85C131.511 18.4833 130.795 20.0833 130.128 21.65C129.495 23.2167 128.978 24.65 128.578 25.95C128.178 27.2167 127.978 28.25 127.978 29.05C127.978 29.9833 128.295 30.45 128.928 30.45C129.195 30.45 129.478 30.3833 129.778 30.25C130.211 30.0833 130.695 29.8333 131.228 29.5C131.761 29.1667 132.245 28.7833 132.678 28.35C133.545 27.5167 134.311 26.6667 134.978 25.8C135.645 24.9 136.045 24.3833 136.178 24.25C136.278 24.1167 136.361 24.05 136.428 24.05C136.561 24.05 136.628 24.15 136.628 24.35C136.628 24.55 136.561 24.7333 136.428 24.9C136.161 25.2333 135.711 25.8167 135.078 26.65C134.445 27.45 133.695 28.2667 132.828 29.1C131.995 29.9333 131.095 30.5667 130.128 31C129.828 31.1333 129.511 31.2333 129.178 31.3C128.845 31.4 128.511 31.45 128.178 31.45C127.445 31.45 126.778 31.2333 126.178 30.8C125.611 30.3333 125.328 29.5667 125.328 28.5C125.328 27.4667 125.561 26.3 126.028 25C126.528 23.6667 127.078 22.3833 127.678 21.15C128.311 19.8833 128.828 18.8167 129.228 17.95C129.661 17.05 130.211 15.9 130.878 14.5C131.545 13.1 132.311 11.6833 133.178 10.25L118.778 25.45C118.745 25.7167 118.628 25.9833 118.428 26.25C118.228 26.4833 117.911 26.6833 117.478 26.85C117.245 26.95 116.928 27.2167 116.528 27.65C116.128 28.0833 115.861 28.3833 115.728 28.55C115.728 28.5833 115.678 28.6 115.578 28.6C115.478 28.6 115.378 28.5667 115.278 28.5C115.178 28.4333 115.145 28.3833 115.178 28.35C116.045 27.25 116.495 25.7333 116.528 23.8L116.578 22.6C116.645 21.2 116.695 19.7333 116.728 18.2C116.761 16.6333 116.778 15.1833 116.778 13.85C116.811 12.4833 116.828 11.3833 116.828 10.55C116.828 9.68333 116.828 9.25 116.828 9.25C116.828 8.45 116.945 7.75 117.178 7.15C117.411 6.55 117.695 6.03333 118.028 5.6C117.461 6.03333 116.911 6.55 116.378 7.15C115.845 7.75 115.395 8.41667 115.028 9.15C114.528 10.1833 113.961 11.5167 113.328 13.15C112.695 14.7833 111.961 16.5167 111.128 18.35C110.328 20.1833 109.428 21.9833 108.428 23.75C107.461 25.4833 106.378 26.9833 105.178 28.25C104.345 29.15 103.278 29.9167 101.978 30.55C100.711 31.1833 99.5115 31.5 98.3781 31.5ZM146.182 11.9C145.715 11.9 145.382 11.75 145.182 11.45C145.049 11.2833 144.982 11.0667 144.982 10.8C144.982 10.2667 145.232 9.83333 145.732 9.5C146.099 9.3 146.432 9.2 146.732 9.2C147.232 9.2 147.582 9.35 147.782 9.65C147.915 9.81667 147.982 10.0333 147.982 10.3C147.982 10.8333 147.715 11.2667 147.182 11.6C146.882 11.8 146.549 11.9 146.182 11.9ZM137.482 31.15C137.149 31.15 136.865 31.0833 136.632 30.95C136.432 30.8167 136.332 30.5667 136.332 30.2C136.332 29.7333 136.449 29.1833 136.682 28.55C136.949 27.9167 137.232 27.2833 137.532 26.65C137.865 26.0167 138.115 25.5 138.282 25.1C138.515 24.6333 138.799 24.0333 139.132 23.3C139.499 22.5333 139.832 21.8167 140.132 21.15C140.465 20.45 140.699 19.9667 140.832 19.7C140.365 20.2 139.799 20.8333 139.132 21.6C138.499 22.3333 137.899 23.05 137.332 23.75C136.765 24.45 136.332 25 136.032 25.4C135.932 25.5333 135.849 25.6 135.782 25.6C135.715 25.6 135.682 25.5167 135.682 25.35C135.682 25.0833 135.765 24.8333 135.932 24.6C136.565 23.8 137.265 22.9 138.032 21.9C138.832 20.9 139.549 19.9833 140.182 19.15C140.815 18.2833 141.215 17.7167 141.382 17.45C141.749 17.3833 142.282 17.2833 142.982 17.15C143.715 17.0167 144.215 16.8333 144.482 16.6C144.582 16.5 144.682 16.45 144.782 16.45C144.849 16.45 144.882 16.5167 144.882 16.65C144.915 16.75 144.882 16.8667 144.782 17C144.582 17.2333 144.232 17.8 143.732 18.7C143.232 19.6 142.699 20.6 142.132 21.7C141.599 22.7667 141.099 23.7333 140.632 24.6C140.165 25.5 139.765 26.3667 139.432 27.2C139.099 28.0333 138.932 28.6333 138.932 29C138.932 29.4667 139.165 29.7 139.632 29.7C140.065 29.7 140.615 29.4333 141.282 28.9C141.982 28.3667 142.682 27.7333 143.382 27C144.082 26.2333 144.699 25.5333 145.232 24.9C145.399 24.7 145.599 24.4667 145.832 24.2C146.099 23.9 146.265 23.7167 146.332 23.65C146.399 23.7167 146.432 23.8333 146.432 24C146.399 24.2333 146.315 24.4667 146.182 24.7C146.049 24.9 145.915 25.0833 145.782 25.25C145.082 26.1167 144.315 27.0167 143.482 27.95C142.649 28.85 141.732 29.6167 140.732 30.25C139.732 30.85 138.649 31.15 137.482 31.15ZM153.401 31.3C153.068 31.3 152.735 31.2167 152.401 31.05C151.968 30.85 151.551 30.45 151.151 29.85C150.751 29.25 150.418 28.6167 150.151 27.95C149.885 27.2833 149.701 26.7333 149.601 26.3C148.668 27.1 147.868 27.8833 147.201 28.65C146.535 29.4167 145.768 30.2333 144.901 31.1C144.801 31.2 144.551 31.25 144.151 31.25C143.918 31.25 143.685 31.2167 143.451 31.15C143.218 31.0833 143.101 30.9833 143.101 30.85C143.101 30.6833 143.201 30.5333 143.401 30.4C144.568 29.4667 145.585 28.6667 146.451 28C147.318 27.3 148.318 26.4833 149.451 25.55C149.418 25.3833 149.351 25.0167 149.251 24.45C149.151 23.8833 149.035 23.2667 148.901 22.6C148.801 21.9333 148.718 21.35 148.651 20.85C148.585 20.3167 148.551 20 148.551 19.9C148.618 19.5 148.835 19.15 149.201 18.85C149.568 18.5167 149.985 18.2667 150.451 18.1C150.951 17.9 151.385 17.8 151.751 17.8C152.218 17.8 152.451 17.9167 152.451 18.15C152.451 18.2833 152.318 18.35 152.051 18.35C151.618 18.35 151.351 18.5333 151.251 18.9C151.151 19.2667 151.085 19.5667 151.051 19.8C151.018 20 150.985 20.2 150.951 20.4C150.951 20.6 150.951 20.8 150.951 21C150.951 21.5 150.985 22 151.051 22.5C151.118 23 151.201 23.4833 151.301 23.95C151.468 23.8167 151.801 23.55 152.301 23.15C152.801 22.75 153.385 22.2833 154.051 21.75C154.718 21.2167 155.385 20.6833 156.051 20.15C156.718 19.6167 157.285 19.1667 157.751 18.8C158.218 18.4333 158.501 18.2167 158.601 18.15C159.001 17.8833 159.485 17.7667 160.051 17.8C160.651 17.8 161.168 17.8 161.601 17.8C161.701 17.8 161.751 17.9 161.751 18.1C161.751 18.4 161.685 18.55 161.551 18.55C161.085 18.5833 160.601 18.7 160.101 18.9C159.635 19.0667 159.268 19.2167 159.001 19.35C158.235 19.6833 157.385 20.1833 156.451 20.85C155.551 21.4833 154.668 22.15 153.801 22.85C152.935 23.5167 152.168 24.1333 151.501 24.7C151.568 25 151.701 25.5167 151.901 26.25C152.135 26.9833 152.418 27.6833 152.751 28.35C153.151 29.2167 153.635 29.65 154.201 29.65C154.668 29.65 155.118 29.3833 155.551 28.85C155.985 28.3167 156.351 27.7167 156.651 27.05C156.985 26.35 157.201 25.7667 157.301 25.3C157.368 25.1 157.451 25 157.551 25C157.785 25 157.868 25.1833 157.801 25.55C157.635 26.3167 157.351 27.15 156.951 28.05C156.551 28.95 156.051 29.7167 155.451 30.35C154.851 30.9833 154.168 31.3 153.401 31.3Z" fill="black"/>
</svg>
